<mxfile host="app.diagrams.net" agent="Mozilla/5.0 (X11; Linux x86_64) AppleWebKit/537.36 (KHTML, like Gecko) Chrome/133.0.0.0 Safari/537.36" version="26.0.16">
  <diagram name="Page-1" id="8JCQpaikMgqonGDCtJQX">
    <mxGraphModel dx="1652" dy="445" grid="1" gridSize="10" guides="1" tooltips="1" connect="1" arrows="1" fold="1" page="1" pageScale="1" pageWidth="850" pageHeight="1100" math="0" shadow="0">
      <root>
        <mxCell id="0" />
        <mxCell id="1" parent="0" />
        <mxCell id="McnzU3LAf_sewxRUfJeg-7" style="edgeStyle=orthogonalEdgeStyle;rounded=0;orthogonalLoop=1;jettySize=auto;html=1;exitX=1;exitY=0.25;exitDx=0;exitDy=0;" edge="1" parent="1" source="McnzU3LAf_sewxRUfJeg-1">
          <mxGeometry relative="1" as="geometry">
            <mxPoint x="360" y="330.02439024390253" as="targetPoint" />
          </mxGeometry>
        </mxCell>
        <mxCell id="McnzU3LAf_sewxRUfJeg-17" style="edgeStyle=orthogonalEdgeStyle;rounded=0;orthogonalLoop=1;jettySize=auto;html=1;exitX=0.5;exitY=1;exitDx=0;exitDy=0;" edge="1" parent="1" source="McnzU3LAf_sewxRUfJeg-1">
          <mxGeometry relative="1" as="geometry">
            <mxPoint x="310" y="550" as="targetPoint" />
            <Array as="points">
              <mxPoint x="180" y="520" />
              <mxPoint x="311" y="520" />
              <mxPoint x="311" y="550" />
            </Array>
          </mxGeometry>
        </mxCell>
        <mxCell id="McnzU3LAf_sewxRUfJeg-20" style="edgeStyle=orthogonalEdgeStyle;rounded=0;orthogonalLoop=1;jettySize=auto;html=1;exitX=0.25;exitY=1;exitDx=0;exitDy=0;entryX=0.5;entryY=0;entryDx=0;entryDy=0;" edge="1" parent="1" source="McnzU3LAf_sewxRUfJeg-1" target="McnzU3LAf_sewxRUfJeg-18">
          <mxGeometry relative="1" as="geometry">
            <Array as="points">
              <mxPoint x="140" y="420" />
            </Array>
          </mxGeometry>
        </mxCell>
        <mxCell id="McnzU3LAf_sewxRUfJeg-28" style="edgeStyle=orthogonalEdgeStyle;rounded=0;orthogonalLoop=1;jettySize=auto;html=1;exitX=0.5;exitY=1;exitDx=0;exitDy=0;entryX=0;entryY=0.5;entryDx=0;entryDy=0;" edge="1" parent="1" source="McnzU3LAf_sewxRUfJeg-1" target="McnzU3LAf_sewxRUfJeg-25">
          <mxGeometry relative="1" as="geometry" />
        </mxCell>
        <mxCell id="McnzU3LAf_sewxRUfJeg-32" style="edgeStyle=orthogonalEdgeStyle;rounded=0;orthogonalLoop=1;jettySize=auto;html=1;exitX=0;exitY=0.25;exitDx=0;exitDy=0;" edge="1" parent="1" source="McnzU3LAf_sewxRUfJeg-1">
          <mxGeometry relative="1" as="geometry">
            <mxPoint x="29.999999999999886" y="330.2941176470589" as="targetPoint" />
          </mxGeometry>
        </mxCell>
        <mxCell id="McnzU3LAf_sewxRUfJeg-49" style="edgeStyle=orthogonalEdgeStyle;rounded=0;orthogonalLoop=1;jettySize=auto;html=1;exitX=0;exitY=0.75;exitDx=0;exitDy=0;entryX=1;entryY=0.5;entryDx=0;entryDy=0;" edge="1" parent="1" source="McnzU3LAf_sewxRUfJeg-1" target="McnzU3LAf_sewxRUfJeg-48">
          <mxGeometry relative="1" as="geometry" />
        </mxCell>
        <mxCell id="McnzU3LAf_sewxRUfJeg-1" value="Twake&lt;br&gt;Calendar&lt;br&gt;Side&lt;br&gt;Service" style="rounded=1;whiteSpace=wrap;html=1;fillColor=#dae8fc;strokeColor=#6c8ebf;" vertex="1" parent="1">
          <mxGeometry x="120" y="300" width="120" height="120" as="geometry" />
        </mxCell>
        <mxCell id="McnzU3LAf_sewxRUfJeg-9" style="edgeStyle=orthogonalEdgeStyle;rounded=0;orthogonalLoop=1;jettySize=auto;html=1;exitX=0;exitY=0.5;exitDx=0;exitDy=0;entryX=1;entryY=0.5;entryDx=0;entryDy=0;" edge="1" parent="1" source="McnzU3LAf_sewxRUfJeg-2" target="McnzU3LAf_sewxRUfJeg-1">
          <mxGeometry relative="1" as="geometry" />
        </mxCell>
        <mxCell id="McnzU3LAf_sewxRUfJeg-12" style="edgeStyle=orthogonalEdgeStyle;rounded=0;orthogonalLoop=1;jettySize=auto;html=1;exitX=0.25;exitY=1;exitDx=0;exitDy=0;entryX=1;entryY=0.5;entryDx=0;entryDy=0;" edge="1" parent="1" source="McnzU3LAf_sewxRUfJeg-2" target="McnzU3LAf_sewxRUfJeg-11">
          <mxGeometry relative="1" as="geometry" />
        </mxCell>
        <mxCell id="McnzU3LAf_sewxRUfJeg-16" style="edgeStyle=orthogonalEdgeStyle;rounded=0;orthogonalLoop=1;jettySize=auto;html=1;exitX=0.5;exitY=1;exitDx=0;exitDy=0;entryX=0.5;entryY=0;entryDx=0;entryDy=0;" edge="1" parent="1" source="McnzU3LAf_sewxRUfJeg-2" target="McnzU3LAf_sewxRUfJeg-15">
          <mxGeometry relative="1" as="geometry">
            <Array as="points">
              <mxPoint x="425" y="520" />
              <mxPoint x="310" y="520" />
            </Array>
          </mxGeometry>
        </mxCell>
        <mxCell id="McnzU3LAf_sewxRUfJeg-27" style="edgeStyle=orthogonalEdgeStyle;rounded=0;orthogonalLoop=1;jettySize=auto;html=1;exitX=0.5;exitY=1;exitDx=0;exitDy=0;entryX=1;entryY=0.5;entryDx=0;entryDy=0;" edge="1" parent="1" source="McnzU3LAf_sewxRUfJeg-2" target="McnzU3LAf_sewxRUfJeg-25">
          <mxGeometry relative="1" as="geometry" />
        </mxCell>
        <mxCell id="McnzU3LAf_sewxRUfJeg-2" value="Sabre" style="rounded=1;whiteSpace=wrap;html=1;fillColor=#fff2cc;strokeColor=#d6b656;" vertex="1" parent="1">
          <mxGeometry x="365" y="300" width="120" height="120" as="geometry" />
        </mxCell>
        <mxCell id="McnzU3LAf_sewxRUfJeg-4" value="" style="shape=flexArrow;endArrow=classic;html=1;rounded=0;width=14;endSize=3.91;entryX=0.375;entryY=0;entryDx=0;entryDy=0;entryPerimeter=0;fillColor=#fff2cc;strokeColor=#d6b656;" edge="1" parent="1">
          <mxGeometry width="50" height="50" relative="1" as="geometry">
            <mxPoint x="425" y="200" as="sourcePoint" />
            <mxPoint x="425" y="290" as="targetPoint" />
          </mxGeometry>
        </mxCell>
        <mxCell id="McnzU3LAf_sewxRUfJeg-6" value="CalDAV (+JSON)&lt;br&gt;CardDAV&lt;br&gt;(+JSON)" style="text;html=1;align=center;verticalAlign=middle;whiteSpace=wrap;rounded=0;" vertex="1" parent="1">
          <mxGeometry x="430" y="200" width="90" height="70" as="geometry" />
        </mxCell>
        <mxCell id="McnzU3LAf_sewxRUfJeg-8" value="Proxy for some export calls" style="text;html=1;align=center;verticalAlign=middle;whiteSpace=wrap;rounded=0;" vertex="1" parent="1">
          <mxGeometry x="260" y="290" width="90" height="30" as="geometry" />
        </mxCell>
        <mxCell id="McnzU3LAf_sewxRUfJeg-10" value="JWT + OIDC token validation" style="text;html=1;align=center;verticalAlign=middle;whiteSpace=wrap;rounded=0;" vertex="1" parent="1">
          <mxGeometry x="260" y="330" width="100" height="30" as="geometry" />
        </mxCell>
        <mxCell id="McnzU3LAf_sewxRUfJeg-14" style="edgeStyle=orthogonalEdgeStyle;rounded=0;orthogonalLoop=1;jettySize=auto;html=1;exitX=0;exitY=0.5;exitDx=0;exitDy=0;entryX=0.75;entryY=1;entryDx=0;entryDy=0;" edge="1" parent="1" source="McnzU3LAf_sewxRUfJeg-11" target="McnzU3LAf_sewxRUfJeg-1">
          <mxGeometry relative="1" as="geometry" />
        </mxCell>
        <mxCell id="McnzU3LAf_sewxRUfJeg-11" value="RabbitMQ" style="ellipse;whiteSpace=wrap;html=1;aspect=fixed;fillColor=#ffe6cc;strokeColor=#d79b00;" vertex="1" parent="1">
          <mxGeometry x="270" y="420" width="80" height="80" as="geometry" />
        </mxCell>
        <mxCell id="McnzU3LAf_sewxRUfJeg-13" value="Calendar&lt;br&gt;events" style="text;html=1;align=center;verticalAlign=middle;whiteSpace=wrap;rounded=0;" vertex="1" parent="1">
          <mxGeometry x="350" y="464" width="60" height="30" as="geometry" />
        </mxCell>
        <mxCell id="McnzU3LAf_sewxRUfJeg-15" value="MongoDB" style="ellipse;whiteSpace=wrap;html=1;aspect=fixed;fillColor=#ffe6cc;strokeColor=#d79b00;" vertex="1" parent="1">
          <mxGeometry x="270" y="550" width="80" height="80" as="geometry" />
        </mxCell>
        <mxCell id="McnzU3LAf_sewxRUfJeg-18" value="OpenSearch" style="ellipse;whiteSpace=wrap;html=1;aspect=fixed;fillColor=#ffe6cc;strokeColor=#d79b00;" vertex="1" parent="1">
          <mxGeometry x="100" y="550" width="80" height="80" as="geometry" />
        </mxCell>
        <mxCell id="McnzU3LAf_sewxRUfJeg-19" value="Redis" style="ellipse;whiteSpace=wrap;html=1;aspect=fixed;fillColor=#ffe6cc;strokeColor=#d79b00;" vertex="1" parent="1">
          <mxGeometry x="10" y="550" width="80" height="80" as="geometry" />
        </mxCell>
        <mxCell id="McnzU3LAf_sewxRUfJeg-22" style="edgeStyle=orthogonalEdgeStyle;rounded=0;orthogonalLoop=1;jettySize=auto;html=1;exitX=0.25;exitY=1;exitDx=0;exitDy=0;entryX=0.471;entryY=-0.036;entryDx=0;entryDy=0;entryPerimeter=0;" edge="1" parent="1" source="McnzU3LAf_sewxRUfJeg-1" target="McnzU3LAf_sewxRUfJeg-19">
          <mxGeometry relative="1" as="geometry">
            <Array as="points">
              <mxPoint x="140" y="420" />
              <mxPoint x="140" y="485" />
              <mxPoint x="48" y="485" />
            </Array>
          </mxGeometry>
        </mxCell>
        <mxCell id="McnzU3LAf_sewxRUfJeg-23" value="" style="shape=flexArrow;endArrow=classic;html=1;rounded=0;entryX=0.5;entryY=0;entryDx=0;entryDy=0;fillColor=#dae8fc;strokeColor=#6c8ebf;" edge="1" parent="1">
          <mxGeometry width="50" height="50" relative="1" as="geometry">
            <mxPoint x="180" y="200" as="sourcePoint" />
            <mxPoint x="180" y="290" as="targetPoint" />
          </mxGeometry>
        </mxCell>
        <mxCell id="McnzU3LAf_sewxRUfJeg-24" value="OpenPaaS&lt;br&gt;REST API" style="text;html=1;align=center;verticalAlign=middle;whiteSpace=wrap;rounded=0;" vertex="1" parent="1">
          <mxGeometry x="190" y="210" width="60" height="30" as="geometry" />
        </mxCell>
        <mxCell id="McnzU3LAf_sewxRUfJeg-25" value="LDAP" style="ellipse;whiteSpace=wrap;html=1;aspect=fixed;fillColor=#ffe6cc;strokeColor=#d79b00;" vertex="1" parent="1">
          <mxGeometry x="270" y="640" width="80" height="80" as="geometry" />
        </mxCell>
        <mxCell id="McnzU3LAf_sewxRUfJeg-29" value="Main DB" style="text;html=1;align=center;verticalAlign=middle;whiteSpace=wrap;rounded=0;" vertex="1" parent="1">
          <mxGeometry x="210" y="520" width="60" height="30" as="geometry" />
        </mxCell>
        <mxCell id="McnzU3LAf_sewxRUfJeg-30" value="Basic AUTH support" style="text;html=1;align=center;verticalAlign=middle;whiteSpace=wrap;rounded=0;" vertex="1" parent="1">
          <mxGeometry x="200" y="640" width="70" height="40" as="geometry" />
        </mxCell>
        <mxCell id="McnzU3LAf_sewxRUfJeg-33" value="Send calendar related mails" style="text;html=1;align=center;verticalAlign=middle;whiteSpace=wrap;rounded=0;" vertex="1" parent="1">
          <mxGeometry x="30" y="330" width="80" height="30" as="geometry" />
        </mxCell>
        <mxCell id="McnzU3LAf_sewxRUfJeg-34" value="" style="html=1;verticalLabelPosition=bottom;align=center;labelBackgroundColor=#ffffff;verticalAlign=top;strokeWidth=2;strokeColor=#0080F0;shadow=0;dashed=0;shape=mxgraph.ios7.icons.mail;" vertex="1" parent="1">
          <mxGeometry x="55" y="303.5" width="30" height="16.5" as="geometry" />
        </mxCell>
        <mxCell id="McnzU3LAf_sewxRUfJeg-35" value="Event&lt;br&gt;search" style="text;html=1;align=center;verticalAlign=middle;whiteSpace=wrap;rounded=0;" vertex="1" parent="1">
          <mxGeometry x="85" y="494" width="60" height="30" as="geometry" />
        </mxCell>
        <mxCell id="McnzU3LAf_sewxRUfJeg-36" value="WebSocket&amp;nbsp;&lt;br&gt;PubSub" style="text;html=1;align=center;verticalAlign=middle;whiteSpace=wrap;rounded=0;" vertex="1" parent="1">
          <mxGeometry x="-20" y="494" width="60" height="30" as="geometry" />
        </mxCell>
        <mxCell id="McnzU3LAf_sewxRUfJeg-41" value="&lt;font style=&quot;color: rgb(179, 179, 179); font-size: 8px;&quot;&gt;Reuse&lt;br style=&quot;&quot;&gt;ASF James&lt;br style=&quot;&quot;&gt;helper classes&lt;/font&gt;" style="ellipse;shape=cloud;whiteSpace=wrap;html=1;fillColor=#f5f5f5;fontColor=#333333;strokeColor=#FFFFFF;" vertex="1" parent="1">
          <mxGeometry x="-40" y="600" width="100" height="60" as="geometry" />
        </mxCell>
        <mxCell id="McnzU3LAf_sewxRUfJeg-45" value="&lt;font style=&quot;color: rgb(179, 179, 179); font-size: 8px;&quot;&gt;Reuse&lt;br style=&quot;&quot;&gt;ASF James&lt;br style=&quot;&quot;&gt;helper classes&lt;/font&gt;" style="ellipse;shape=cloud;whiteSpace=wrap;html=1;fillColor=#f5f5f5;fontColor=#333333;strokeColor=#FFFFFF;" vertex="1" parent="1">
          <mxGeometry x="80" y="610" width="100" height="60" as="geometry" />
        </mxCell>
        <mxCell id="McnzU3LAf_sewxRUfJeg-46" value="&lt;font style=&quot;color: rgb(179, 179, 179); font-size: 8px;&quot;&gt;Reuse&lt;br style=&quot;&quot;&gt;ASF James&lt;br style=&quot;&quot;&gt;helper classes&lt;/font&gt;" style="ellipse;shape=cloud;whiteSpace=wrap;html=1;fillColor=#f5f5f5;fontColor=#333333;strokeColor=#FFFFFF;" vertex="1" parent="1">
          <mxGeometry x="220" y="690" width="100" height="60" as="geometry" />
        </mxCell>
        <mxCell id="McnzU3LAf_sewxRUfJeg-47" value="&lt;font style=&quot;color: rgb(179, 179, 179); font-size: 8px;&quot;&gt;Reuse&lt;br style=&quot;&quot;&gt;ASF James&lt;br style=&quot;&quot;&gt;helper classes&lt;/font&gt;" style="ellipse;shape=cloud;whiteSpace=wrap;html=1;fillColor=#f5f5f5;fontColor=#333333;strokeColor=#FFFFFF;" vertex="1" parent="1">
          <mxGeometry x="240" y="370" width="100" height="60" as="geometry" />
        </mxCell>
        <mxCell id="McnzU3LAf_sewxRUfJeg-48" value="OIDC provider" style="rounded=1;whiteSpace=wrap;html=1;fillColor=#ffe6cc;strokeColor=#d79b00;" vertex="1" parent="1">
          <mxGeometry x="-150" y="360" width="120" height="60" as="geometry" />
        </mxCell>
        <mxCell id="McnzU3LAf_sewxRUfJeg-50" value="OIDC token validation" style="text;html=1;align=center;verticalAlign=middle;whiteSpace=wrap;rounded=0;" vertex="1" parent="1">
          <mxGeometry x="-20" y="400" width="120" height="30" as="geometry" />
        </mxCell>
        <mxCell id="McnzU3LAf_sewxRUfJeg-51" value="&lt;font style=&quot;color: rgb(179, 179, 179); font-size: 8px;&quot;&gt;Reuse&lt;br style=&quot;&quot;&gt;ASF James&lt;br style=&quot;&quot;&gt;helper classes&lt;/font&gt;" style="ellipse;shape=cloud;whiteSpace=wrap;html=1;fillColor=#f5f5f5;fontColor=#333333;strokeColor=#FFFFFF;" vertex="1" parent="1">
          <mxGeometry x="-90" y="320" width="100" height="60" as="geometry" />
        </mxCell>
      </root>
    </mxGraphModel>
  </diagram>
</mxfile>
